<svg width="18" height="18" viewBox="0 0 18 18" fill="none" xmlns="http://www.w3.org/2000/svg">
<path d="M8.97187 18C7.93125 18 7.22812 17.1298 7.22812 16.011C7.22812 15.3895 7.48125 14.4448 7.9875 13.1768C8.49375 11.884 8.74687 10.6409 8.74687 9.34807C7.50938 10.0193 6.58125 10.7155 5.87813 11.4116C4.47187 12.8039 3.09375 14.1713 1.63125 14.1713C0.73125 14.1713 0 13.5497 0 12.8039C0 11.9834 0.759375 11.163 2.41875 10.7652C3.23437 10.5663 4.1625 10.3425 5.20312 10.1685C6.21562 9.99447 7.34062 9.59669 8.52187 9C7.3125 8.40332 6.15937 8.00553 5.09062 7.80663C2.98125 7.40884 1.29375 7.08563 0.5625 6.33978C0.196875 5.96685 0 5.56906 0 5.14641C0 4.40055 0.675 3.82873 1.65937 3.82873C3.15 3.82873 4.89375 5.56906 6.13125 6.81215C6.75 7.4337 7.62188 8.05525 8.74687 8.65193V8.32873C8.74687 7.33425 8.6625 6.51381 8.4375 5.91713C7.9875 4.72376 7.28437 2.85912 7.28437 1.98895C7.28437 0.845303 8.01562 0 9.02812 0C10.0125 0 10.7719 0.79558 10.7719 1.98895C10.7719 2.58564 10.5187 3.55525 10.0125 4.87293C9.50625 6.19061 9.25313 7.45856 9.25313 8.65193C10.8562 7.75691 10.6594 7.85635 12.0375 6.68785C13.3594 5.39503 14.2875 4.59945 14.7937 4.30111C15.3281 3.9779 15.8625 3.82873 16.425 3.82873C17.325 3.82873 18 4.37569 18 5.14641C18 5.99171 17.2969 6.71271 15.6656 7.18508C14.8781 7.40884 13.95 7.60774 12.9094 7.80663C11.8406 8.00553 10.7156 8.40332 9.47812 9C10.6875 9.59669 11.7844 9.96961 12.825 10.1685C14.8781 10.5663 16.6219 10.9144 17.4094 11.6354C17.8031 12.0083 18 12.3812 18 12.8039C18 13.5497 17.325 14.1713 16.3406 14.1713C14.6812 14.1713 12.5437 11.8343 11.7281 11.0138C11.3344 10.616 10.4906 10.0442 9.25313 9.34807V9.67127C9.25313 10.7403 9.50625 11.9337 9.98438 13.2265C10.4625 14.5193 10.7156 15.4392 10.7156 16.011C10.7156 17.1796 9.95625 18 8.97187 18Z" fill="#616E37"/>
</svg>
