<svg width="29" height="29" viewBox="0 0 29 29" fill="none" xmlns="http://www.w3.org/2000/svg">
<path fill-rule="evenodd" clip-rule="evenodd" d="M14.5 3.625C11.5464 3.625 11.1766 3.63733 10.0166 3.69025C8.85878 3.74318 8.0678 3.92733 7.37615 4.1963C6.65115 4.4689 5.99358 4.89665 5.44983 5.45055C4.89681 5.99367 4.4688 6.65078 4.19557 7.37615C3.92805 8.0678 3.74318 8.8595 3.69025 10.0173C3.63805 11.1766 3.625 11.5456 3.625 14.5C3.625 17.4544 3.63733 17.8234 3.69025 18.9834C3.74318 20.1412 3.92733 20.9322 4.1963 21.6238C4.4689 22.3489 4.89665 23.0064 5.45055 23.5502C5.99369 24.1032 6.65079 24.5312 7.37615 24.8044C8.0678 25.0727 8.85878 25.2568 10.0166 25.3098C11.1766 25.3627 11.5464 25.375 14.5 25.375C17.4537 25.375 17.8234 25.3627 18.9834 25.3098C20.1412 25.2568 20.9322 25.0727 21.6238 24.8037C22.3489 24.5311 23.0064 24.1034 23.5502 23.5495C24.1032 23.0063 24.5312 22.3492 24.8044 21.6238C25.0727 20.9322 25.2568 20.1412 25.3098 18.9834C25.3627 17.8234 25.375 17.4537 25.375 14.5C25.375 11.5464 25.3627 11.1766 25.3098 10.0166C25.2568 8.85878 25.0727 8.0678 24.8037 7.37615C24.5307 6.65047 24.1026 5.99308 23.5495 5.44983C23.0063 4.89681 22.3492 4.4688 21.6238 4.19557C20.9322 3.92805 20.1405 3.74318 18.9827 3.69025C17.8234 3.63805 17.4544 3.625 14.5 3.625ZM14.5 5.58468C17.4036 5.58468 17.748 5.59555 18.895 5.64775C19.9549 5.69633 20.5306 5.8725 20.9141 6.02258C21.4216 6.21905 21.7841 6.4554 22.1647 6.8353C22.5453 7.21592 22.781 7.57843 22.9774 8.08593C23.1268 8.46945 23.3037 9.0451 23.3522 10.1051C23.4044 11.252 23.4153 11.5964 23.4153 14.5C23.4153 17.4036 23.4044 17.748 23.3522 18.895C23.3037 19.9549 23.1275 20.5306 22.9774 20.9141C22.8034 21.3864 22.5257 21.8138 22.1647 22.1647C21.8139 22.5257 21.3865 22.8035 20.9141 22.9774C20.5306 23.1268 19.9549 23.3037 18.895 23.3522C17.748 23.4044 17.4044 23.4153 14.5 23.4153C11.5957 23.4153 11.252 23.4044 10.1051 23.3522C9.0451 23.3037 8.46945 23.1275 8.08593 22.9774C7.61356 22.8034 7.1862 22.5257 6.8353 22.1647C6.47438 21.8138 6.19667 21.3864 6.02258 20.9141C5.87322 20.5306 5.69633 19.9549 5.64775 18.895C5.59555 17.748 5.58468 17.4036 5.58468 14.5C5.58468 11.5964 5.59555 11.252 5.64775 10.1051C5.69633 9.0451 5.8725 8.46945 6.02258 8.08593C6.21905 7.57843 6.4554 7.21592 6.8353 6.8353C7.18616 6.47428 7.61352 6.19656 8.08593 6.02258C8.46945 5.87322 9.0451 5.69633 10.1051 5.64775C11.252 5.59555 11.5964 5.58468 14.5 5.58468Z" fill="#F6F4E9"/>
<path fill-rule="evenodd" clip-rule="evenodd" d="M14.5 18.1287C14.0235 18.1287 13.5517 18.0349 13.1114 17.8525C12.6712 17.6702 12.2712 17.4029 11.9342 17.0659C11.5973 16.729 11.33 16.329 11.1476 15.8887C10.9653 15.4485 10.8714 14.9766 10.8714 14.5001C10.8714 14.0236 10.9653 13.5517 11.1476 13.1115C11.33 12.6713 11.5973 12.2712 11.9342 11.9343C12.2712 11.5973 12.6712 11.3301 13.1114 11.1477C13.5517 10.9653 14.0235 10.8715 14.5 10.8715C15.4624 10.8715 16.3854 11.2538 17.0659 11.9343C17.7464 12.6148 18.1286 13.5377 18.1286 14.5001C18.1286 15.4625 17.7464 16.3854 17.0659 17.0659C16.3854 17.7464 15.4624 18.1287 14.5 18.1287ZM14.5 8.91036C13.0175 8.91036 11.5958 9.49928 10.5475 10.5476C9.4992 11.5958 8.91028 13.0176 8.91028 14.5001C8.91028 15.9826 9.4992 17.4044 10.5475 18.4527C11.5958 19.5009 13.0175 20.0899 14.5 20.0899C15.9825 20.0899 17.4043 19.5009 18.4526 18.4527C19.5009 17.4044 20.0898 15.9826 20.0898 14.5001C20.0898 13.0176 19.5009 11.5958 18.4526 10.5476C17.4043 9.49928 15.9825 8.91036 14.5 8.91036ZM21.7159 8.80886C21.7159 9.1593 21.5767 9.49538 21.3289 9.74317C21.0812 9.99096 20.7451 10.1302 20.3946 10.1302C20.0442 10.1302 19.7081 9.99096 19.4603 9.74317C19.2125 9.49538 19.0733 9.1593 19.0733 8.80886C19.0733 8.45843 19.2125 8.12235 19.4603 7.87455C19.7081 7.62676 20.0442 7.48755 20.3946 7.48755C20.7451 7.48755 21.0812 7.62676 21.3289 7.87455C21.5767 8.12235 21.7159 8.45843 21.7159 8.80886Z" fill="#F6F4E9"/>
</svg>
