<svg width="23" height="19" viewBox="0 0 23 19" fill="none" xmlns="http://www.w3.org/2000/svg">
<path fill-rule="evenodd" clip-rule="evenodd" d="M2.09478 7.84883C8.00035 5.27585 11.9383 3.57959 13.9087 2.76003C19.5345 0.420046 20.7035 0.0135654 21.4654 0.000143111C21.633 -0.00280896 22.0077 0.0387227 22.2504 0.235669C22.4554 0.401967 22.5118 0.626612 22.5387 0.78428C22.5657 0.941949 22.5993 1.30112 22.5726 1.58177C22.2678 4.78503 20.9486 12.5585 20.2775 16.1462C19.9935 17.6643 19.4344 18.1733 18.8931 18.2231C17.7167 18.3314 16.8233 17.4457 15.6839 16.6988C13.901 15.53 12.8937 14.8025 11.1631 13.662C9.16298 12.3439 10.4596 11.6195 11.5994 10.4356C11.8977 10.1258 17.081 5.41117 17.1813 4.98348C17.1939 4.92999 17.2055 4.7306 17.087 4.62532C16.9686 4.52004 16.7938 4.55604 16.6676 4.58467C16.4888 4.62526 13.6405 6.50789 8.12275 10.2326C7.31427 10.7877 6.58198 11.0582 5.92587 11.044C5.20256 11.0284 3.8112 10.6351 2.77687 10.2988C1.50822 9.88646 0.499927 9.66842 0.587727 8.96806C0.633459 8.60326 1.13581 8.23019 2.09478 7.84883Z" fill="#D9D9D9"/>
</svg>
