<svg width="25" height="24" viewBox="0 0 25 24" fill="none" xmlns="http://www.w3.org/2000/svg">
<path d="M15.1403 10.2464C15.0651 10.2464 14.9928 10.2175 14.9383 10.1657C14.8838 10.1139 14.8513 10.0431 14.8476 9.96794C14.7978 8.97201 14.3285 8.48431 13.3709 8.43279C13.2946 8.42672 13.2237 8.39108 13.1733 8.33347C13.1229 8.27586 13.097 8.20084 13.1011 8.12441C13.1053 8.04798 13.1391 7.97619 13.1954 7.92435C13.2517 7.87251 13.3261 7.84473 13.4026 7.84692C14.6662 7.91654 15.3687 8.63817 15.4334 9.9387C15.4354 9.97719 15.4297 10.0157 15.4167 10.052C15.4038 10.0883 15.3838 10.1217 15.3579 10.1502C15.3321 10.1788 15.3008 10.202 15.266 10.2185C15.2312 10.235 15.1934 10.2445 15.1549 10.2464H15.1403Z" fill="#F6F4E9"/>
<path d="M16.6392 10.7512H16.6462C16.723 10.751 16.7966 10.7208 16.8514 10.667C16.9062 10.6132 16.9377 10.5401 16.9393 10.4633C16.9651 9.31768 16.6145 8.34228 15.9096 7.57123C15.2047 6.80017 14.2133 6.3626 12.9625 6.27105C12.8848 6.26537 12.808 6.2908 12.749 6.34176C12.69 6.39271 12.6537 6.46501 12.648 6.54274C12.6423 6.62048 12.6678 6.69729 12.7187 6.75627C12.7697 6.81525 12.842 6.85158 12.9197 6.85726C14.0312 6.93871 14.8649 7.30075 15.4769 7.96842C16.0889 8.63609 16.3754 9.44822 16.3527 10.4511C16.351 10.5289 16.3801 10.6042 16.4339 10.6605C16.4876 10.7167 16.5615 10.7494 16.6392 10.7512Z" fill="#F6F4E9"/>
<path d="M18.1873 11.3534C18.1098 11.3533 18.0356 11.3227 17.9806 11.2681C17.9256 11.2135 17.8945 11.1395 17.8938 11.062C17.8802 9.26824 17.3636 7.89809 16.3144 6.87396C15.2778 5.86445 13.9682 5.34646 12.4216 5.33532C12.383 5.33519 12.3449 5.32746 12.3093 5.31259C12.2738 5.29771 12.2415 5.27598 12.2144 5.24863C12.1595 5.19341 12.1289 5.11865 12.1292 5.04083C12.1294 4.963 12.1606 4.88846 12.2158 4.83363C12.2711 4.77879 12.3458 4.74814 12.4237 4.74841H12.4261C14.129 4.76095 15.5751 5.33463 16.7242 6.45414C17.8733 7.57365 18.4658 9.12552 18.4811 11.0586C18.4816 11.1363 18.4513 11.2111 18.3967 11.2666C18.3422 11.322 18.2678 11.3535 18.1901 11.3541L18.1873 11.3534Z" fill="#F6F4E9"/>
<path d="M14.0793 13.6447C13.8572 13.9183 13.4447 13.8835 13.4447 13.8835C10.4297 13.1138 9.62281 10.0598 9.62281 10.0598C9.62281 10.0598 9.58661 9.64733 9.86161 9.42524L10.4064 8.9922C10.6765 8.78403 10.8488 8.27892 10.5738 7.78566C10.3629 7.4154 10.1336 7.05593 9.88667 6.70861C9.64683 6.38104 9.08812 5.71024 9.08603 5.70815C8.81659 5.39033 8.42045 5.31653 8.00272 5.5341C8.00145 5.5341 7.99972 5.53466 7.99805 5.5352C7.9965 5.5357 7.99502 5.53619 7.99401 5.53619C7.57854 5.77557 7.20391 6.07969 6.88425 6.43709C6.88316 6.43927 6.88207 6.44031 6.88098 6.44135C6.87998 6.44231 6.87898 6.44326 6.87798 6.44509C6.61992 6.75653 6.4722 7.06182 6.43484 7.36096C6.42708 7.40507 6.4244 7.44992 6.42683 7.49464C6.42545 7.62673 6.44555 7.75818 6.48636 7.88382L6.50063 7.89357C6.63083 8.35586 6.95665 9.12587 7.6647 10.4097C8.0697 11.1523 8.53678 11.8592 9.06096 12.5231C9.32359 12.8558 9.60509 13.1732 9.90408 13.4737C9.90768 13.4773 9.91124 13.4809 9.91479 13.4845C9.92188 13.4917 9.92892 13.4988 9.93611 13.5058L10.0322 13.6018C10.3327 13.9008 10.6501 14.1823 10.9829 14.445C11.6468 14.9692 12.3539 15.4363 13.0966 15.8412C14.38 16.5493 15.1508 16.8751 15.6123 17.0053L15.6221 17.0196C15.7477 17.0605 15.8792 17.0807 16.0113 17.0794C16.056 17.0816 16.1008 17.0788 16.1449 17.0711C16.4446 17.0356 16.7496 16.8881 17.0601 16.6286C17.062 16.6276 17.0629 16.6266 17.0639 16.6256C17.0649 16.6245 17.066 16.6235 17.0681 16.6224C17.4255 16.3026 17.7298 15.928 17.9694 15.5126C17.9694 15.5116 17.9698 15.5101 17.9702 15.5086C17.9707 15.5069 17.9711 15.5052 17.9711 15.5039C18.1887 15.0862 18.1149 14.69 17.7953 14.4202C17.7949 14.4202 17.7689 14.3988 17.7247 14.3624C17.5436 14.2132 17.0583 13.8133 16.7949 13.6196C16.4479 13.3727 16.0888 13.1434 15.7189 12.9324C15.2253 12.6574 14.7212 12.8297 14.5123 13.0999L14.0793 13.6447Z" fill="#F6F4E9"/>
<path fill-rule="evenodd" clip-rule="evenodd" d="M21.0992 2.85956C20.5227 2.32766 18.1932 0.63655 13.0043 0.613574C13.0043 0.613574 6.88528 0.244581 3.90235 2.98071C2.24188 4.64153 1.65775 7.07166 1.59614 10.0845C1.53452 13.0974 1.45481 18.7437 6.89747 20.2747H6.90269L6.89921 22.6108C6.89921 22.6108 6.8644 23.5566 7.48716 23.7495C8.11584 23.9447 8.52776 23.4763 9.06489 22.8656C9.17137 22.7445 9.28277 22.6179 9.40175 22.4897C9.7965 22.0643 10.3416 21.4394 10.7524 20.9618C14.4747 21.2751 17.3376 20.5591 17.6627 20.4533C17.7298 20.4315 17.8248 20.4073 17.9427 20.3774C19.1453 20.0716 22.7288 19.1604 23.3588 14.0188C24.0727 8.19953 23.0135 4.51864 21.0992 2.85956ZM21.73 13.6015C21.2043 17.8461 18.3554 18.509 17.3289 18.7478C17.2155 18.7742 17.1241 18.7955 17.0608 18.8158C16.7903 18.9028 14.276 19.5283 11.1141 19.3219C11.1141 19.3219 8.7581 22.1642 8.0222 22.9032C7.90733 23.0188 7.77226 23.0655 7.6821 23.0425C7.55539 23.0115 7.52058 22.8615 7.52197 22.6422C7.52406 22.3289 7.54216 18.7601 7.54216 18.7601C3.09023 17.5241 3.19407 12.9899 3.253 10.4165C3.25501 10.3285 3.25697 10.2429 3.2587 10.1597C3.31092 7.64326 3.78365 5.58176 5.18791 4.19525C7.71099 1.90993 12.9086 2.25142 12.9086 2.25142C17.2979 2.27057 19.4011 3.59233 19.8888 4.03512C21.5082 5.42163 22.3333 8.73945 21.73 13.6001V13.6015Z" fill="#F6F4E9"/>
</svg>
